<?xml version="1.0" encoding="UTF-8"?>
<svg width="700pt" height="700pt" version="1.1" viewBox="0 0 700 700" xmlns="http://www.w3.org/2000/svg">
 <path d="m336.09 560h27.965v-56.629h-27.965zm183.17-238.4h-71.312c-15.102 0-29.223 7.4102-43.625 17.199-4.0547 2.7969-8.25 5.7344-12.445 8.668 0 0.69922 0.14062 1.3984 0.14062 2.0977v210.3c23.629 0 41.668-0.41797 44.047-0.83984 7.6914-1.1172 12.863-8.3906 11.605-15.941 0 0-7.832-50.059-6.9922-91.727 0.28125-16.078 1.5391-30.762 5.8711-39.988 5.4531-11.746 20.695-23.352 36.355-33.559 7.1328-4.6133 14.543-8.9492 21.395-12.863-1.1172 7.1328-0.55859 13.422 1.3984 18.738 4.7539 12.586 18.598 22.793 47.402 22.094 19.156 23.492 42.648 23.91 56.488 14.684 13.562-9.0898 22.094-30.203 8.8086-56.488 9.6484-15.379 11.465-28.105 11.465-40.969 0-6.0117-1.5391-10.207-3.7734-13.422-2.3789-3.4961-5.7344-6.1523-10.207-7.9688-4.1953-1.6797-10.625-2.0977-18.316-5.0352-13.703-21.254-39.57-23.07-58.727-8.1094-9.0898 6.9922-16.777 18.176-19.715 33.137zm-323.28 43.484c6.8516 3.7734 14.121 8.1094 21.395 12.863 15.66 10.207 30.762 21.672 36.355 33.559 4.3359 9.2266 5.5938 23.91 5.8711 39.988 0.83984 41.668-6.9922 91.727-6.9922 91.727-1.1172 7.6914 4.0547 14.82 11.605 15.941 2.5156 0.41797 20.555 0.69922 44.047 0.83984v-210.3c0-0.69922 0-1.3984 0.14062-2.0977-4.1953-2.9375-8.3906-5.8711-12.445-8.668-14.402-9.7891-28.523-17.199-43.625-17.199h-71.449c-4.0547-20.137-16.5-33.277-29.922-39.012-17.34-7.4102-37.195-3.4961-48.52 14.121-7.5508 2.9375-14.121 3.2148-18.316 5.0352-4.4727 1.8164-7.6914 4.4727-10.207 7.9688-2.1016 3.0781-3.6367 7.4102-3.6367 13.285 0 13.004 1.8164 25.727 11.465 40.969-13.285 26.148-4.7539 47.402 8.8086 56.488 13.844 9.2266 37.195 8.8086 56.488-14.684 28.664 0.69922 42.648-9.5078 47.262-22.094 1.957-5.3125 2.5156-11.605 1.3984-18.738zm168.21 110.32h-27.965v-27.965h27.965zm-27.965-113.82v57.887h27.965v-57.887c-4.4727 1.2578-9.0898 1.957-13.984 1.957s-9.5078-0.69922-13.984-1.957zm-139.82-136.05-11.746-7.832c6.7109-28.105 2.2383-49.5-17.34-59.844-8.1094-32.719-56.91-33.418-66.977-2.2383-5.4531 1.1172-11.746 2.9375-16.641 5.7344-8.6641 4.8984-13.418 12.027-13.418 20.418 0 6.4336 0.28125 25.027 5.5938 39.152 5.1719 13.844 14.82 23.492 29.223 24.191 4.3359 0.14062 9.3672-0.41797 14.961-2.5156 1.1172 1.2578 2.5156 2.5156 3.9141 3.6367 9.0898 7.1328 22.512 10.348 35.516 5.0352 4.1953-1.6797 8.25-4.3359 12.164-8.25l24.469 16.359v6.4336c-7.6914 0-13.984 6.293-13.984 13.984v13.984c0 7.6914 6.293 13.984 13.984 13.984l307.76-0.015625c7.6914 0 13.984-6.293 13.984-13.984v-13.984c0-7.6914-6.293-13.984-13.984-13.984v-6.4336l24.469-16.359c3.9141 3.9141 7.9688 6.5703 12.164 8.25 12.863 5.4531 26.426 2.0977 35.516-5.0352 1.3984-1.1172 2.6562-2.3789 3.9141-3.6367 5.7344 2.0977 10.766 2.7969 14.961 2.5156 14.402-0.69922 24.051-10.348 29.223-24.191 5.3125-14.121 5.5938-32.859 5.5938-39.152 0-8.3906-4.7539-15.52-13.145-20.273-4.8945-2.7969-11.188-4.6133-16.641-5.8711-10.066-31.18-58.727-30.48-66.977 2.2383-19.715 10.207-24.191 31.742-17.34 59.844l-11.746 7.832v-105.71l6.9922 4.0547c6.7109 3.9141 15.242 1.6797 19.156-5.0352 3.9141-6.7109 1.6797-15.242-5.0352-19.156l-167.92-97.727c-4.3359-2.5156-9.7891-2.5156-14.121 0l-167.79 97.879c-6.7109 3.9141-8.9492 12.445-5.0352 19.156 3.9141 6.7109 12.445 8.9492 19.156 5.0352l6.9922-4.0547v105.71zm139.82-71.73c0-7.6914-6.293-13.984-13.984-13.984h-69.914c-7.6914 0-13.984 6.293-13.984 13.984v111.86c0 7.6914 6.293 13.984 13.984 13.984h69.914c7.6914 0 13.984-6.293 13.984-13.984zm-27.965 13.984v83.895h-41.949v-83.895zm153.81-13.984c0-7.6914-6.293-13.984-13.984-13.984h-83.895c-7.6914 0-13.984 6.293-13.984 13.984v69.914c0 7.6914 6.293 13.984 13.984 13.984h83.895c7.6914 0 13.984-6.293 13.984-13.984zm-41.949 13.984h13.984v41.949h-13.984zm-27.965 0v41.949h-13.984v-41.949zm-41.949-125.84c-23.211 0-41.949 18.738-41.949 41.949 0 23.211 18.738 41.949 41.949 41.949 23.211 0 41.949-18.738 41.949-41.949 0-23.211-18.738-41.949-41.949-41.949zm0 27.965c7.6914 0 13.984 6.293 13.984 13.984 0 7.6914-6.293 13.984-13.984 13.984-7.6914 0-13.984-6.293-13.984-13.984 0-7.6914 6.293-13.984 13.984-13.984z" fill-rule="evenodd"/>
</svg>
