<?xml version="1.0" encoding="UTF-8"?>
<svg width="700pt" height="700pt" version="1.1" viewBox="0 0 700 700" xmlns="http://www.w3.org/2000/svg">
 <path d="m448 336c0 6.3008-4.1992 11.762-10.219 13.441l-252 70c-4.7617 1.3984-9.9414 0-13.578-3.5-3.6406-3.5-5.0391-8.6797-3.7812-13.441l20.301-66.5h-88.062l16.52 170.24c3.2188 30.941 27.441 53.762 55.719 53.762h354.06c28.141 0 52.5-22.82 55.719-53.762l16.66-170.24h-151.34zm-252 154h28c7.6992 0 14-6.3008 14-14s-6.3008-14-14-14h-28c-7.6992 0-14 6.3008-14 14s6.3008 14 14 14zm280 0h28c7.6992 0 14-6.3008 14-14s-6.3008-14-14-14h-28c-7.6992 0-14 6.3008-14 14s6.3008 14 14 14zm-84 0h28c7.6992 0 14-6.3008 14-14s-6.3008-14-14-14h-28c-7.6992 0-14 6.3008-14 14s6.3008 14 14 14zm-112 0h28c7.6992 0 14-6.3008 14-14s-6.3008-14-14-14h-28c-7.6992 0-14 6.3008-14 14s6.3008 14 14 14zm196-70h28c7.6992 0 14-6.3008 14-14s-6.3008-14-14-14h-28c-7.6992 0-14 6.3008-14 14s6.3008 14 14 14zm-84 0h28c7.6992 0 14-6.3008 14-14s-6.3008-14-14-14h-28c-7.6992 0-14 6.3008-14 14s6.3008 14 14 14zm-113.82-182h-26.18l-50.398 147.98 218.4-60.621v-87.359h-28v56c0 6.0195-3.9219 11.34-9.5195 13.301l-126 42c-5.0391 1.6797-10.5 0.42188-14.281-3.3594s-5.1797-9.2383-3.5-14.281l39.48-93.801zm85.82 0h-56l-34.301 76.02 90.301-30.102v-45.922zm252 0h-168v70h168c7.6992 0 14-6.3008 14-14v-42c0-7.6992-6.3008-14-14-14zm-418.74 70 25.621-70h-138.88c-7.6992 0-14 6.3008-14 14v42c0 7.6992 6.3008 14 14 14zm-66.641-98h232.82c-8.8203-29.961-29.961-55.02-58.102-69.859-14.559-7.6992-31.078-12.461-48.578-13.859-2.5195-36.121-16.102-56.559-31.078-68.32-26.461-20.859-59.781-15.398-59.781-15.398-6.5781 1.1211-11.48 6.5781-11.762 13.16 0 0-1.6797 40.32 20.719 69.859 4.3398 5.6016 9.2383 10.359 14.559 14.281-28.281 14.699-49.84 39.898-58.801 70zm261.52 0h182v-14h-56c-7.6992 0-14-6.3008-14-14s6.3008-14 14-14h56v-14.422c0-11.059-4.3398-21.559-12.18-29.398-7.8398-7.8398-18.34-12.18-29.398-12.18h-154.84c-11.059 0-21.559 4.3398-29.398 12.18-2.2383 2.2383-4.3398 4.7617-6.0195 7.5586 11.199 9.3789 21.422 21.281 30.66 36.262h19.18c7.6992 0 14 6.3008 14 14s-6.3008 14-14 14h-4.6211c1.2617 2.8008 2.5195 5.7383 3.6406 8.8203 0.69922 1.6797 0.98047 3.5 0.98047 5.1797zm-72.379-93.379c11.621-18.48 31.219-32.621 58.379-32.621h39.898c-1.9609-6.0195-5.3203-11.48-9.9414-15.961-4.6211-4.4805-10.078-7.8398-15.961-9.9414v-21.84c0-9.6602-3.7812-18.898-10.641-25.621-6.8594-6.8594-15.961-10.641-25.621-10.641h-11.48c-9.6602 0-18.898 3.7813-25.621 10.641-6.8594 6.8594-10.641 15.961-10.641 25.621v21.84c-6.0195 1.9609-11.48 5.3203-15.961 9.9414-7.6992 7.6992-12.039 18.059-12.039 28.98v5.6016c14.559 3.2188 27.719 7.8398 39.621 14z" fill-rule="evenodd"/>
</svg>
